<svg version="1.2" xmlns="http://www.w3.org/2000/svg" viewBox="0 0 1300 664" width="1300" height="664">
	<style>
		.s0 { fill: #fbbf24 }
	</style>
	<path id="bop" class="s0" aria-label="bop"  d="m138.8 205.8v-169.2l-94.8 10.2v445.2h84l3.6-28.8c18.6 25.2 46.8 39 78.6 39 82.8 0 127.8-72 127.8-170.4 0-103.8-36-169.2-117.6-169.2-32.4 0-61.8 16.8-81.6 43.2zm46.8 227.4c-20.4 0-34.8-10.2-46.8-28.8v-134.4c13.8-23.4 30-37.2 51.6-37.2 30 0 49.8 21 49.8 100.2 0 72-21 100.2-54.6 100.2zm356.4-270.6c-97.8 0-154.8 68.4-154.8 169.8 0 107.4 57 169.8 154.8 169.8 97.8 0 154.8-63.6 154.8-170.4 0-102-56.4-169.2-154.8-169.2zm0 70.2c39 0 57 30 57 99 0 71.4-18 100.8-57 100.8-39 0-57-29.4-57-100.2 0-69.6 18-99.6 57-99.6zm398.4-70.2c-30 0-62.4 13.8-88.2 46.2l-4.2-35.4h-84v451.8l94.8-10.2v-145.8c19.2 21.6 44.4 33 75.6 33 77.4 0 122.4-72 122.4-170.4 0-103.8-33.6-169.2-116.4-169.2zm-29.4 70.2c30 0 48 21 48 100.2 0 72-19.8 99.6-53.4 99.6-19.8 0-33.6-9-46.8-28.2v-134.4c13.8-23.4 30-37.2 52.2-37.2z"/>
</svg>
