<?xml version="1.0" standalone="no"?>
<!DOCTYPE svg PUBLIC "-//W3C//DTD SVG 20010904//EN"
 "http://www.w3.org/TR/2001/REC-SVG-20010904/DTD/svg10.dtd">
<svg version="1.0" xmlns="http://www.w3.org/2000/svg"
 width="1000.000000pt" height="1000.000000pt" viewBox="0 0 1000.000000 1000.000000"
 preserveAspectRatio="xMidYMid meet">
<metadata>
Created by potrace 1.14, written by Peter Selinger 2001-2017
</metadata>
<g transform="translate(0.000000,1000.000000) scale(0.100000,-0.100000)"
fill="#000000" stroke="none">
<path d="M0 5000 l0 -5000 5000 0 5000 0 0 5000 0 5000 -5000 0 -5000 0 0
-5000z m2032 1410 l3 -499 50 33 c137 92 267 120 519 114 201 -6 262 -19 387
-85 187 -97 343 -310 408 -558 74 -284 66 -682 -20 -944 -107 -329 -333 -534
-641 -582 -104 -16 -342 -6 -440 20 -85 22 -179 65 -242 112 -22 16 -42 26
-43 22 -1 -4 -4 -34 -8 -65 l-6 -58 -215 0 -214 0 0 1495 0 1495 230 0 230 0
2 -500z m3223 -374 c443 -124 691 -464 721 -991 22 -366 -88 -691 -305 -905
-185 -182 -391 -259 -696 -260 -166 0 -237 10 -366 51 -139 44 -236 104 -345
213 -218 219 -317 511 -301 891 9 220 46 367 135 539 131 254 364 425 650 476
83 15 439 5 507 -14z m2523 8 c139 -29 257 -90 360 -187 136 -129 224 -308
274 -559 19 -96 22 -145 22 -323 0 -242 -13 -335 -73 -511 -55 -163 -108 -251
-221 -365 -79 -79 -109 -102 -180 -136 -145 -69 -189 -78 -400 -78 -157 1
-198 4 -275 23 -94 24 -176 57 -225 92 -15 11 -31 20 -34 20 -3 0 -6 -205 -6
-455 l0 -455 -230 0 -230 0 0 1460 0 1460 214 0 214 0 7 -65 7 -65 44 31 c70
48 171 90 264 110 113 24 360 25 468 3z"/>
<path d="M2373 5735 c-125 -35 -239 -123 -305 -236 l-38 -64 0 -461 0 -461 27
-49 c15 -27 59 -81 97 -120 79 -79 161 -124 263 -145 119 -24 249 20 360 125
177 165 251 525 187 910 -40 235 -160 416 -321 481 -84 34 -194 42 -270 20z"/>
<path d="M4840 5738 c-233 -82 -383 -320 -409 -653 -26 -315 49 -593 203 -749
208 -211 472 -207 682 11 86 89 149 228 179 395 26 146 17 397 -18 532 -40
149 -87 237 -176 327 -105 105 -198 151 -314 156 -66 3 -95 -1 -147 -19z"/>
<path d="M7328 5731 c-113 -37 -192 -96 -264 -196 l-44 -63 0 -507 0 -507 36
-54 c102 -154 296 -246 456 -216 208 39 363 211 430 477 20 80 23 115 23 305
0 204 -1 220 -28 315 -58 213 -152 342 -303 417 -75 37 -94 42 -167 45 -60 2
-97 -2 -139 -16z"/>
</g>
</svg>
